<svg xmlns="http://www.w3.org/2000/svg" viewBox="0 0 512 512" width="64" height="64">
  <path d="M256 0C114.6 0 0 114.6 0 256s114.6 256 256 256 256-114.6 256-256S397.4 0 256 0zm0 464c-114.7 0-208-93.3-208-208S141.3 48 256 48s208 93.3 208 208-93.3 208-208 208z" fill="#0c344b"/>
  <path d="M325.8 186.2c-16.5-16.5-38.5-25.6-61.8-25.6-23.3 0-45.3 9.1-61.8 25.6-16.5 16.5-25.6 38.5-25.6 61.8 0 23.3 9.1 45.3 25.6 61.8 16.5 16.5 38.5 25.6 61.8 25.6 23.3 0 45.3-9.1 61.8-25.6 16.5-16.5 25.6-38.5 25.6-61.8 0-23.3-9.1-45.3-25.6-61.8zm-61.8 117.2c-30.5 0-55.4-24.9-55.4-55.4s24.9-55.4 55.4-55.4 55.4 24.9 55.4 55.4-24.9 55.4-55.4 55.4z" fill="#0c344b"/>
</svg>

