<?xml version="1.0" encoding="UTF-8"?>
<svg version="1.1" xmlns="http://www.w3.org/2000/svg" width="257" height="196">
<path d="M0 0 C2.43994141 1.14477539 2.43994141 1.14477539 4.8515625 2.59765625 C5.77219482 3.14437988 6.69282715 3.69110352 7.64135742 4.25439453 C9.1182605 5.14940674 9.1182605 5.14940674 10.625 6.0625 C12.75818978 7.33358458 14.89234699 8.60304664 17.02734375 9.87109375 C18.15253418 10.54124512 19.27772461 11.21139648 20.43701172 11.90185547 C24.14260995 14.09491213 27.88182631 16.22645217 31.62890625 18.34765625 C32.26076843 18.70575882 32.89263062 19.06386139 33.54364014 19.43281555 C36.03574851 20.84418223 38.52842122 22.25447754 41.02496338 23.6579895 C42.76231378 24.63531184 44.49645075 25.61833978 46.23046875 26.6015625 C47.22457764 27.16182129 48.21868652 27.72208008 49.24291992 28.29931641 C52.12790327 30.07889615 54.56598755 31.62762972 57 34 C57.66183472 37.06015015 57.66183472 37.06015015 57.71044922 40.69287109 C57.72563599 41.35681381 57.74082275 42.02075653 57.75646973 42.70481873 C57.79879076 44.89487676 57.80376499 47.08299638 57.8046875 49.2734375 C57.81822043 50.8003519 57.83264817 52.32725861 57.84793091 53.85415649 C57.87334151 57.05368573 57.87862817 60.2525337 57.87158203 63.45214844 C57.86548618 67.54459825 57.92333831 71.63334845 57.99824333 75.72501183 C58.04643689 78.87883973 58.05328819 82.03177993 58.0485878 85.18593216 C58.0526308 86.69385145 58.07106699 88.20180571 58.10439682 89.70936203 C58.33715522 101.43939366 58.33715522 101.43939366 55.14439392 105.16569519 C52.82697973 106.74200854 50.56984683 107.89136283 48 109 C46.39475464 109.96208374 46.39475464 109.96208374 44.75708008 110.94360352 C43.77118896 111.49975342 42.78529785 112.05590332 41.76953125 112.62890625 C40.64683838 113.26578369 39.52414551 113.90266113 38.36743164 114.55883789 C37.182582 115.22695156 35.99760212 115.89483428 34.8125 116.5625 C32.3266389 117.96613814 29.84225419 119.37234381 27.359375 120.78125 C26.7402272 121.13256485 26.12107941 121.4838797 25.48316956 121.84584045 C21.43212315 124.15524097 17.43189197 126.53606006 13.453125 128.96875 C12.45434326 129.5764624 11.45556152 130.1841748 10.42651367 130.81030273 C8.55722046 131.95393221 6.69499303 133.10921539 4.84106445 134.27758789 C4.00792725 134.78539795 3.17479004 135.29320801 2.31640625 135.81640625 C1.59912354 136.26443604 0.88184082 136.71246582 0.14282227 137.17407227 C-2.67991303 138.26206514 -4.13408151 137.89705579 -7 137 C-9.2980957 135.9152832 -9.2980957 135.9152832 -11.67578125 134.55078125 C-12.57458008 134.039104 -13.47337891 133.52742676 -14.39941406 133.00024414 C-15.36073242 132.44328857 -16.32205078 131.88633301 -17.3125 131.3125 C-18.31635742 130.73814209 -19.32021484 130.16378418 -20.35449219 129.57202148 C-28.82129537 124.71575197 -37.25315628 119.79726432 -45.6652832 114.84692383 C-46.5955835 114.30060303 -47.52588379 113.75428223 -48.484375 113.19140625 C-49.28584961 112.71904541 -50.08732422 112.24668457 -50.91308594 111.76000977 C-55.57026068 109.10471297 -60.29363813 106.56710647 -65 104 C-65 80.57 -65 57.14 -65 33 C-58.07 29.04 -51.14 25.08 -44 21 C-39.4771048 18.39927489 -34.95543958 15.79677589 -30.4375 13.1875 C-29.39271484 12.58486328 -28.34792969 11.98222656 -27.27148438 11.36132812 C-26.23185547 10.76126953 -25.19222656 10.16121094 -24.12109375 9.54296875 C-23.11288574 8.96595215 -22.10467773 8.38893555 -21.06591797 7.79443359 C-18.9441904 6.5526198 -16.84523948 5.27136581 -14.76611328 3.95947266 C-13.72052246 3.30897949 -12.67493164 2.65848633 -11.59765625 1.98828125 C-10.66574463 1.39184814 -9.73383301 0.79541504 -8.77368164 0.1809082 C-5.30164223 -1.29732916 -3.59648286 -1.03402227 0 0 Z M-11.1171875 23.25390625 C-11.72958282 23.59244125 -12.34197815 23.93097626 -12.97293091 24.2797699 C-14.27699278 25.00168011 -15.57993029 25.72562445 -16.88183594 26.45141602 C-19.46709506 27.89256181 -22.05741306 29.32443077 -24.65002441 30.75230408 C-25.92427067 31.46420332 -27.19088074 32.18993873 -28.44958496 32.92897034 C-31.51044253 34.71452866 -34.19883678 36.06511337 -37.59570312 37.17749023 C-41.5610328 38.65276406 -43.42156986 39.6060143 -46 43 C-48.02767015 51.40713284 -47.11709343 60.37949005 -46.75 68.9375 C-46.68978375 71.36249923 -46.63503494 73.7876408 -46.5859375 76.21289062 C-46.4539262 82.14503839 -46.25340424 88.07186361 -46 94 C-44.98184204 94.56545532 -44.98184204 94.56545532 -43.94311523 95.14233398 C-40.77313265 96.90480674 -37.60520197 98.67093164 -34.4375 100.4375 C-33.29829102 101.07115479 -32.15908203 101.70480957 -30.98535156 102.35766602 C-25.99526571 105.14609768 -21.0230454 107.93723627 -16.17578125 110.96875 C-15.49781494 111.3922876 -14.81984863 111.8158252 -14.12133789 112.25219727 C-12.90773577 113.02089111 -11.70186213 113.80197908 -10.50561523 114.59741211 C-8.06071124 116.14714491 -6.56120096 117.05963952 -3.62915039 116.74804688 C-0.80983704 115.94589476 1.41112441 114.85973487 3.95703125 113.41015625 C4.90642578 112.87197266 5.85582031 112.33378906 6.83398438 111.77929688 C8.30834961 110.92948242 8.30834961 110.92948242 9.8125 110.0625 C10.75287109 109.53076172 11.69324219 108.99902344 12.66210938 108.45117188 C14.66310271 107.30946799 16.64451803 106.13295362 18.60791016 104.92773438 C21.19798474 103.45578757 23.55831751 102.33574475 26.29443359 101.22851562 C30.88532812 99.18896502 35.00184364 97.15167355 38 93 C40.61248809 84.81382736 39.49823268 75.81792885 39 67.375 C38.91966633 65.01195925 38.84667562 62.64865675 38.78125 60.28515625 C38.60565672 54.51769155 38.33872002 48.76006459 38 43 C37.25540527 42.5875 36.51081055 42.175 35.74365234 41.75 C32.91449032 40.1820834 30.08572015 38.61346309 27.2572937 37.04421997 C26.00635711 36.35025124 24.75532012 35.65646346 23.50418091 34.96286011 C15.39089038 30.46405145 7.30602107 25.92526332 -0.69140625 21.22265625 C-5.00343144 18.93896102 -7.06055297 21.00366483 -11.1171875 23.25390625 Z " fill="#2477B9" transform="translate(130,21)"/>
<path d="M0 0 C3.37318682 1.73362988 6.62455004 3.59306421 9.81640625 5.63671875 C10.409375 6.00925781 11.00234375 6.38179687 11.61328125 6.765625 C13.05954055 7.67536875 14.50098671 8.59275673 15.94140625 9.51171875 C15.61140625 10.83171875 15.28140625 12.15171875 14.94140625 13.51171875 C15.93269531 13.28226563 16.92398438 13.0528125 17.9453125 12.81640625 C24.01635697 11.98123611 28.9245929 14.73097483 33.83203125 18.08984375 C36.78226217 20.71411905 37.5299856 22.79294391 38.05078125 26.68359375 C38.53508395 37.61769476 38.53508395 37.61769476 36.94140625 42.51171875 C34.8840332 44.29736328 34.8840332 44.29736328 32.94140625 45.51171875 C34.26140625 46.17171875 35.58140625 46.83171875 36.94140625 47.51171875 C38.40951653 66.34870294 38.40951653 66.34870294 35.18359375 71.1015625 C32.81597486 72.61443084 30.58575071 73.57693456 27.94140625 74.51171875 C26.65730515 75.30308338 25.38478359 76.1137873 24.12890625 76.94921875 C20.94140625 78.51171875 20.94140625 78.51171875 18.50390625 78.26171875 C17.73046875 77.89046875 17.73046875 77.89046875 16.94140625 77.51171875 C16.84698242 78.12233154 16.75255859 78.73294434 16.65527344 79.36206055 C15.36674459 83.24218932 11.61812354 84.45098685 8.19140625 86.32421875 C7.4746875 86.74380859 6.75796875 87.16339844 6.01953125 87.59570312 C0.79051277 90.5129956 0.79051277 90.5129956 -2.65625 90.5078125 C-5.85535396 89.18135476 -8.80483244 87.57377555 -11.74609375 85.76171875 C-12.32681641 85.4265625 -12.90753906 85.09140625 -13.50585938 84.74609375 C-17.20300104 82.48934138 -18.92024648 80.71258739 -20.05859375 76.51171875 C-20.72375 76.76695313 -21.38890625 77.0221875 -22.07421875 77.28515625 C-26.53743417 77.62398674 -29.1477063 75.50677305 -32.80859375 73.13671875 C-33.49308594 72.71132812 -34.17757812 72.2859375 -34.8828125 71.84765625 C-39.79879712 68.77151538 -39.79879712 68.77151538 -41.05859375 67.51171875 C-41.36388987 64.41706882 -41.3369414 61.30708292 -41.37109375 58.19921875 C-41.40009766 57.33103516 -41.42910156 56.46285156 -41.45898438 55.56835938 C-41.52340542 49.11138873 -41.52340542 49.11138873 -39.0390625 45.90625 C-38.38550781 45.44605469 -37.73195313 44.98585937 -37.05859375 44.51171875 C-37.69667969 44.21652344 -38.33476563 43.92132813 -38.9921875 43.6171875 C-42.84642257 39.69009355 -42.08455732 34.31622463 -42.16137695 29.07666016 C-41.89746121 22.64830192 -41.89746121 22.64830192 -39.81347656 19.82470703 C-36.33356759 16.83399002 -32.30490975 15.19332334 -28.05859375 13.51171875 C-27.06859375 12.85171875 -26.07859375 12.19171875 -25.05859375 11.51171875 C-22.77462343 11.85777486 -21.12450338 12.47876394 -19.05859375 13.51171875 C-19.04183594 12.78855469 -19.02507812 12.06539062 -19.0078125 11.3203125 C-17.57089217 7.06868402 -14.63000629 5.76543317 -10.87109375 3.57421875 C-10.21044922 3.15076172 -9.54980469 2.72730469 -8.86914062 2.29101562 C-5.55940275 0.31432124 -3.89272284 -0.62144362 0 0 Z " fill="#1D7FC2" transform="translate(128.05859375,43.48828125)"/>
<path d="M0 0 C0.66 0.33 1.32 0.66 2 1 C1.67 2.32 1.34 3.64 1 5 C2.69602516 6.04115423 4.40748937 7.05718378 6.125 8.0625 C7.07632813 8.63097656 8.02765625 9.19945313 9.0078125 9.78515625 C12.63964252 11.2596982 14.27156422 11.12437163 18 10 C20.9609193 8.44409649 20.9609193 8.44409649 23.75 6.5 C29 3 29 3 31 2 C31.11604679 5.4372166 31.18719508 8.87393086 31.25 12.3125 C31.28351563 13.28896484 31.31703125 14.26542969 31.3515625 15.27148438 C31.37089844 16.67817383 31.37089844 16.67817383 31.390625 18.11328125 C31.4220459 19.40939331 31.4220459 19.40939331 31.45410156 20.73168945 C31 23 31 23 28.97558594 24.80541992 C28.32364258 25.19963135 27.67169922 25.59384277 27 26 C28.32 26.66 29.64 27.32 31 28 C32.46811028 46.83698419 32.46811028 46.83698419 29.2421875 51.58984375 C26.87456861 53.10271209 24.64434446 54.06521581 22 55 C20.7158989 55.79136463 19.44337734 56.60206855 18.1875 57.4375 C15 59 15 59 12.5625 58.75 C12.046875 58.5025 11.53125 58.255 11 58 C10.90557617 58.61061279 10.81115234 59.22122559 10.71386719 59.8503418 C9.42533834 63.73047057 5.67671729 64.9392681 2.25 66.8125 C1.53328125 67.23208984 0.8165625 67.65167969 0.078125 68.08398438 C-5.15089348 71.00127685 -5.15089348 71.00127685 -8.59765625 70.99609375 C-11.79676021 69.66963601 -14.74623869 68.0620568 -17.6875 66.25 C-18.26822266 65.91484375 -18.84894531 65.5796875 -19.44726562 65.234375 C-23.14440729 62.97762263 -24.86165273 61.20086864 -26 57 C-26.66515625 57.25523438 -27.3303125 57.51046875 -28.015625 57.7734375 C-32.47884042 58.11226799 -35.08911255 55.9950543 -38.75 53.625 C-39.43449219 53.19960937 -40.11898437 52.77421875 -40.82421875 52.3359375 C-45.74020337 49.25979663 -45.74020337 49.25979663 -47 48 C-47.08651611 46.58429877 -47.10704904 45.164405 -47.09765625 43.74609375 C-47.09443359 42.89208984 -47.09121094 42.03808594 -47.08789062 41.15820312 C-47.07951172 40.26037109 -47.07113281 39.36253906 -47.0625 38.4375 C-47.05798828 37.53580078 -47.05347656 36.63410156 -47.04882812 35.70507812 C-47.03700225 33.46998686 -47.0205222 31.23502563 -47 29 C-43.27794415 30.1234414 -40.38946056 31.26023481 -37.3125 33.625 C-33.00537041 36.47420371 -29.36979743 36.38756419 -24.3203125 36.078125 C-22 36 -22 36 -20 37 C-20.33 37.99 -20.66 38.98 -21 40 C-21.66 40 -22.32 40 -23 40 C-18.96853422 44.70337675 -14.01051538 48.2625854 -8 50 C-3.65195116 48.77984986 0.12613733 46.28295207 4.01171875 44.0234375 C6 43 6 43 8 43 C7.505 41.02 7.505 41.02 7 39 C5.989375 39.268125 4.97875 39.53625 3.9375 39.8125 C3.36902344 39.96332031 2.80054688 40.11414063 2.21484375 40.26953125 C-0.94923679 41.31306399 -3.94850765 42.66291152 -7 44 C-8.52726069 27.01346727 -8.52726069 27.01346727 -4.9140625 22.25 C-2.3286574 20.49101471 0.1113746 19.1860871 3 18 C4.33601244 17.33871868 5.67041532 16.67411186 7 16 C7 15.34 7 14.68 7 14 C6.45730469 13.74605469 5.91460937 13.49210937 5.35546875 13.23046875 C4.64003906 12.88628906 3.92460937 12.54210937 3.1875 12.1875 C2.47980469 11.85105469 1.77210938 11.51460937 1.04296875 11.16796875 C-1.04925943 9.9718383 -2.48678353 8.8735061 -4 7 C-3.875 4.4375 -3.875 4.4375 -3 2 C-2.01 1.34 -1.02 0.68 0 0 Z " fill="#12A9E7" transform="translate(134,63)"/>
<path d="M0 0 C0.20881011 8.89250116 0.3685793 17.78415515 0.46630955 26.67857552 C0.51322417 30.80906051 0.5768137 34.93786511 0.67895508 39.06738281 C0.77696954 43.05514811 0.83060074 47.04130101 0.85389519 51.03017807 C0.87048706 52.54941067 0.90289203 54.0685578 0.95157051 55.58710098 C1.31654962 67.44780261 1.31654962 67.44780261 -1.84446716 71.17460632 C-4.16571912 72.75330425 -6.42308102 73.89662267 -9 75 C-10.07016357 75.64138916 -11.14032715 76.28277832 -12.24291992 76.94360352 C-13.72175659 77.77782837 -13.72175659 77.77782837 -15.23046875 78.62890625 C-16.91487061 79.58410156 -16.91487061 79.58410156 -18.63330078 80.55859375 C-19.81802365 81.2265806 -21.00275693 81.89454899 -22.1875 82.5625 C-24.66938618 83.96756236 -27.14957421 85.37559229 -29.62890625 86.78515625 C-30.55669891 87.3124382 -30.55669891 87.3124382 -31.50323486 87.85037231 C-38.53783253 91.85921374 -45.49208001 96.00380145 -52.42260742 100.18969727 C-53.2654126 100.69428467 -54.10821777 101.19887207 -54.9765625 101.71875 C-56.07605225 102.38293945 -56.07605225 102.38293945 -57.19775391 103.06054688 C-59 104 -59 104 -61 104 C-61.14546783 100.75047252 -61.2341168 97.50178287 -61.3125 94.25 C-61.35439453 93.32960938 -61.39628906 92.40921875 -61.43945312 91.4609375 C-61.45556641 90.57148438 -61.47167969 89.68203125 -61.48828125 88.765625 C-61.51446533 87.94868164 -61.54064941 87.13173828 -61.56762695 86.29003906 C-60.51654396 82.04954081 -56.73137962 80.45411834 -53.2043457 78.26416016 C-52.20491943 77.69487793 -51.20549316 77.1255957 -50.17578125 76.5390625 C-49.06396484 75.90226562 -47.95214844 75.26546875 -46.80664062 74.609375 C-45.64204301 73.94771259 -44.4773289 73.28625516 -43.3125 72.625 C-41.03728414 71.32635491 -38.76253786 70.02688674 -36.48828125 68.7265625 C-35.48321533 68.15502441 -34.47814941 67.58348633 -33.44262695 66.99462891 C-32.30656006 66.33640137 -31.17049316 65.67817383 -30 65 C-28.71857117 64.42428757 -28.71857117 64.42428757 -27.41125488 63.83694458 C-22.11178546 61.30950732 -22.11178546 61.30950732 -19.09266663 56.537323 C-18.74407725 53.47539962 -18.71848362 50.55704492 -18.8046875 47.4765625 C-18.79664093 46.37524994 -18.78859436 45.27393738 -18.78030396 44.13925171 C-18.76534113 40.6326945 -18.81921825 37.13107513 -18.875 33.625 C-18.87694224 31.24348895 -18.87438929 28.8619697 -18.8671875 26.48046875 C-18.85936687 20.65254519 -18.90801291 14.82715695 -19 9 C-18.02417969 8.51789062 -17.04835937 8.03578125 -16.04296875 7.5390625 C-14.75775951 6.90114842 -13.47260618 6.26312169 -12.1875 5.625 C-11.54490234 5.30789062 -10.90230469 4.99078125 -10.24023438 4.6640625 C-0.86352539 0 -0.86352539 0 0 0 Z " fill="#2F3F68" transform="translate(187,55)"/>
<path d="M0 0 C2.43994141 1.14477539 2.43994141 1.14477539 4.8515625 2.59765625 C6.23263184 3.4177417 6.23263184 3.4177417 7.64160156 4.25439453 C8.62612305 4.85106934 9.61064453 5.44774414 10.625 6.0625 C12.75683555 7.33367109 14.88969326 8.60312912 17.0234375 9.87109375 C18.1484668 10.54124512 19.27349609 11.21139648 20.43261719 11.90185547 C24.14883177 14.09974568 27.90250612 16.2285551 31.6640625 18.34765625 C32.29829132 18.70575882 32.93252014 19.06386139 33.58596802 19.43281555 C36.08852707 20.84527155 38.59125846 22.25725678 41.10040283 23.6579895 C42.8462566 24.63333289 44.58728825 25.61729246 46.328125 26.6015625 C47.3274707 27.16182129 48.32681641 27.72208008 49.35644531 28.29931641 C51.95051893 29.96816724 53.91700773 31.73714104 56 34 C53.98808457 35.32816672 51.9671886 36.63698759 49.9375 37.9375 C49.09541992 38.49727539 49.09541992 38.49727539 48.23632812 39.06835938 C44.06669193 41.71310004 40.95587582 43.20269431 36 43 C31.75774932 41.22447197 27.88065524 38.91760774 23.9375 36.5625 C22.82656982 35.92248047 21.71563965 35.28246094 20.57104492 34.62304688 C15.82813261 31.88372852 11.1227574 29.0898846 6.4609375 26.21484375 C5.82808838 25.83191162 5.19523926 25.44897949 4.54321289 25.05444336 C2.93948113 24.07736373 1.35362151 23.07111203 -0.23046875 22.0625 C-3.93378679 20.64176304 -5.35698435 21.56168076 -9 23 C-10.92551246 23.96842932 -12.82644245 24.98691454 -14.703125 26.046875 C-16.29833984 26.9440625 -16.29833984 26.9440625 -17.92578125 27.859375 C-19.02277344 28.48328125 -20.11976562 29.1071875 -21.25 29.75 C-22.33152344 30.3584375 -23.41304687 30.966875 -24.52734375 31.59375 C-30.39597804 34.90680289 -36.18829436 38.29607584 -41.8762207 41.91186523 C-44.57070406 43.29240464 -46.86574005 43.54577835 -49.83984375 42.8984375 C-54.59700156 40.91987277 -58.80335083 37.95462616 -63 35 C-62.83789062 33.20751953 -62.83789062 33.20751953 -62 31 C-59.67773438 29.32763672 -59.67773438 29.32763672 -56.59375 27.6796875 C-55.46525635 27.06673828 -54.3367627 26.45378906 -53.17407227 25.82226562 C-51.94939113 25.17315893 -50.72470018 24.52407076 -49.5 23.875 C-47.6364163 22.86819665 -45.77551206 21.85655858 -43.91468811 20.84466553 C-42.67782222 20.1724684 -41.44014002 19.50177114 -40.2016449 18.83258057 C-35.2581485 16.15854271 -30.39207345 13.37356484 -25.5625 10.5 C-24.89629639 10.10756104 -24.23009277 9.71512207 -23.54370117 9.31079102 C-20.50608977 7.51613508 -17.49546871 5.68988012 -14.515625 3.80078125 C-12.93007812 2.81658203 -12.93007812 2.81658203 -11.3125 1.8125 C-10.42175781 1.24144531 -9.53101563 0.67039062 -8.61328125 0.08203125 C-5.25307748 -1.30926388 -3.51562457 -0.81733282 0 0 Z " fill="#09AEEE" transform="translate(130,21)"/>
<path d="M0 0 C1.34400833 0.98560611 2.67607028 1.98758315 4 3 C6.300871 4.1006331 8.63289851 5.04405517 11 6 C11 7.32 11 8.64 11 10 C8.87602919 11.12617134 6.69859961 12.15254248 4.5 13.125 C1.91498262 14.44291888 -0.16036034 15.73160391 -2 18 C-3.68274523 23.81554617 -2.73922107 30.08623142 -2 36 C-0.91589844 35.34515625 0.16820312 34.6903125 1.28515625 34.015625 C4.63429428 31.99260227 7.04537229 31.61418266 11 32 C11.495 33.98 11.495 33.98 12 36 C9.82708798 37.40440638 7.64185289 38.77156752 5.4375 40.125 C4.82841797 40.52332031 4.21933594 40.92164063 3.59179688 41.33203125 C0.05558457 43.4649847 -1.3994598 44.08930447 -5.625 43.4609375 C-8.86954894 42.0564684 -11.57029963 40.55984562 -14.4375 38.5 C-15.30246094 37.8915625 -16.16742188 37.283125 -17.05859375 36.65625 C-17.69925781 36.1096875 -18.33992188 35.563125 -19 35 C-19 33 -19 33 -17.5 31.375 C-17.005 30.92125 -16.51 30.4675 -16 30 C-16.79921875 30.08121094 -17.5984375 30.16242188 -18.421875 30.24609375 C-27.44108574 30.76480423 -33.99195597 28.89685867 -41 23 C-41 22.01 -41 21.02 -41 20 C-39.0625 18.6875 -39.0625 18.6875 -36 18 C-33.66865455 19.13299031 -31.60299399 20.45282418 -29.4765625 21.93359375 C-26.3624572 23.52964695 -26.3624572 23.52964695 -20 22 C-20 17.05 -20 12.1 -20 7 C-11.796875 2.5078125 -11.796875 2.5078125 -9 1 C-8.27296875 0.60167969 -7.5459375 0.20335938 -6.796875 -0.20703125 C-4.18894981 -1.35791997 -2.67226489 -0.86848609 0 0 Z " fill="#2279BC" transform="translate(130,70)"/>
<path d="M0 0 C3.72205585 1.1234414 6.61053944 2.26023481 9.6875 4.625 C13.99462959 7.47420371 17.63020257 7.38756419 22.6796875 7.078125 C25 7 25 7 27 8 C26.67 8.99 26.34 9.98 26 11 C25.34 11 24.68 11 24 11 C28.48223682 16.25503628 33.89576651 18.83756578 40 22 C40 28.6 40 35.2 40 42 C36.03388259 40.41355304 32.52062147 38.76496929 28.8125 36.6875 C27.24435547 35.82705078 27.24435547 35.82705078 25.64453125 34.94921875 C22.73666428 32.80590173 21.96139681 31.42681931 21 28 C20.33484375 28.25523438 19.6696875 28.51046875 18.984375 28.7734375 C14.52115958 29.11226799 11.91088745 26.9950543 8.25 24.625 C7.56550781 24.19960937 6.88101563 23.77421875 6.17578125 23.3359375 C1.25979663 20.25979663 1.25979663 20.25979663 0 19 C-0.08651611 17.58429877 -0.10704904 16.164405 -0.09765625 14.74609375 C-0.09443359 13.89208984 -0.09121094 13.03808594 -0.08789062 12.15820312 C-0.07951172 11.26037109 -0.07113281 10.36253906 -0.0625 9.4375 C-0.05798828 8.53580078 -0.05347656 7.63410156 -0.04882812 6.70507812 C-0.03700225 4.46998686 -0.0205222 2.23502563 0 0 Z " fill="#2478B9" transform="translate(87,92)"/>
<path d="M0 0 C2.80415709 1.15465292 4.77138946 2.96969623 7.125 4.875 C8.1975 5.37 9.27 5.865 10.375 6.375 C13.125 7.875 13.125 7.875 13.796875 9.96875 C13.90515625 10.5978125 14.0134375 11.226875 14.125 11.875 C13.19816406 12.23207031 12.27132812 12.58914062 11.31640625 12.95703125 C7.42638844 14.7177365 3.80659308 16.46017428 1.125 19.875 C-0.81340609 25.96732282 -0.26238173 32.57528401 0.125 38.875 C-4.10324021 37.57833967 -7.82550812 35.96274719 -11.6875 33.8125 C-12.64269531 33.28527344 -13.59789063 32.75804687 -14.58203125 32.21484375 C-16.875 30.875 -16.875 30.875 -17.875 29.875 C-19.00054167 23.46113085 -19.56554696 16.20621176 -17.875 9.875 C-14.72123066 5.53372338 -9.72705046 3.79648449 -4.875 1.875 C-1.875 -0.125 -1.875 -0.125 0 0 Z " fill="#2579BA" transform="translate(104.875,55.125)"/>
<path d="M0 0 C4.58758821 1.40303196 8.05657837 3.18009593 11.97265625 5.87890625 C14.36508637 7.33553352 14.36508637 7.33553352 19 8 C19 14.93 19 21.86 19 29 C14.23743746 28.04748749 11.22272953 26.55325988 7.25 24 C6.36634766 23.44699219 6.36634766 23.44699219 5.46484375 22.8828125 C1.19041149 20.19041149 1.19041149 20.19041149 0 19 C-0.08651611 17.58429877 -0.10704904 16.164405 -0.09765625 14.74609375 C-0.09443359 13.89208984 -0.09121094 13.03808594 -0.08789062 12.15820312 C-0.07951172 11.26037109 -0.07113281 10.36253906 -0.0625 9.4375 C-0.05798828 8.53580078 -0.05347656 7.63410156 -0.04882812 6.70507812 C-0.03700225 4.46998686 -0.0205222 2.23502563 0 0 Z " fill="#2777B7" transform="translate(87,92)"/>
<path d="M0 0 C3.594507 1.50751445 6.82599095 3.38180847 10.09765625 5.4765625 C10.690625 5.84910156 11.28359375 6.22164062 11.89453125 6.60546875 C13.34079055 7.5152125 14.78223671 8.43260048 16.22265625 9.3515625 C13.31707053 11.28861965 10.38961324 13.15515861 7.41015625 14.9765625 C6.39308594 15.60820313 5.37601563 16.23984375 4.328125 16.890625 C0.89954197 18.50356846 -1.03882928 18.80502113 -4.77734375 18.3515625 C-7.15625 17.3984375 -7.15625 17.3984375 -9.33984375 16.1015625 C-10.10296875 15.64910156 -10.86609375 15.19664063 -11.65234375 14.73046875 C-14.17264411 13.09505326 -16.51187701 11.32471096 -18.77734375 9.3515625 C-15.79557385 7.3231476 -12.78972192 5.33415005 -9.77734375 3.3515625 C-8.81441406 2.67867187 -8.81441406 2.67867187 -7.83203125 1.9921875 C-4.93147161 0.09316639 -3.44843896 -0.80512077 0 0 Z " fill="#0DADEB" transform="translate(127.77734375,43.6484375)"/>
<path d="M0 0 C0.33 0 0.66 0 1 0 C2.46811028 18.83698419 2.46811028 18.83698419 -0.7578125 23.58984375 C-3.12664697 25.10348882 -5.35319791 26.06731736 -8 27 C-9.32627957 27.78980694 -10.64062902 28.6002795 -11.9375 29.4375 C-12.948125 29.953125 -13.95875 30.46875 -15 31 C-15.66 30.67 -16.32 30.34 -17 30 C-18.1721918 16.30159832 -18.1721918 16.30159832 -16 10 C-12.10605554 5.59639019 -6.36012887 3.99126283 -1 2 C-0.67 1.34 -0.34 0.68 0 0 Z " fill="#2E3F67" transform="translate(164,91)"/>
<path d="M0 0 C1.14855469 0.63808594 2.29710937 1.27617188 3.48046875 1.93359375 C4.37668945 2.42762695 4.37668945 2.42762695 5.29101562 2.93164062 C6.75330873 3.73882642 8.21110865 4.55414292 9.66796875 5.37109375 C8.15803039 9.52342423 5.64406133 10.98223309 1.91796875 13.18359375 C0.37882812 14.12138672 0.37882812 14.12138672 -1.19140625 15.078125 C-4.88430551 16.59846039 -6.53618615 16.47163407 -10.33203125 15.37109375 C-12.8515625 14.3203125 -12.8515625 14.3203125 -15.14453125 13.05859375 C-15.91410156 12.64996094 -16.68367187 12.24132812 -17.4765625 11.8203125 C-19.33203125 10.37109375 -19.33203125 10.37109375 -20.1953125 8.3359375 C-20.33203125 6.37109375 -20.33203125 6.37109375 -18.70703125 4.24609375 C-16.30594826 2.35050192 -14.22015898 1.33380299 -11.33203125 0.37109375 C-11.33203125 -0.28890625 -11.33203125 -0.94890625 -11.33203125 -1.62890625 C-6.77918271 -3.14652243 -4.2649032 -2.08495268 0 0 Z " fill="#17A5E2" transform="translate(154.33203125,58.62890625)"/>
<path d="M0 0 C0.33 0 0.66 0 1 0 C1 6.93 1 13.86 1 21 C-1.248125 22.32 -3.49625 23.64 -5.8125 25 C-6.51608643 25.41765625 -7.21967285 25.8353125 -7.94458008 26.265625 C-12.66666667 29 -12.66666667 29 -16 29 C-16 22.73 -16 16.46 -16 10 C-9.125 6.125 -9.125 6.125 -6.96533203 4.91455078 C-4.37040819 3.44159573 -2.11930165 2.11930165 0 0 Z " fill="#2A416B" transform="translate(164,65)"/>
<path d="M0 0 C2.58319493 1.18872687 4.56028723 3.02722656 6.765625 4.8125 C7.838125 5.3075 8.910625 5.8025 10.015625 6.3125 C12.765625 7.8125 12.765625 7.8125 13.4375 9.90625 C13.54578125 10.5353125 13.6540625 11.164375 13.765625 11.8125 C11.90080171 12.99536526 10.02325524 14.15818657 8.140625 15.3125 C7.09648438 15.9621875 6.05234375 16.611875 4.9765625 17.28125 C1.53976144 18.92021109 -0.48075596 19.27091612 -4.234375 18.8125 C-5.59011248 17.50195377 -6.92050331 16.16501497 -8.234375 14.8125 C-10.85733914 13.60229068 -13.48653241 12.72844753 -16.234375 11.8125 C-14.86812917 6.93786983 -12.68591755 5.40225407 -8.359375 2.9375 C-7.31007813 2.32132813 -6.26078125 1.70515625 -5.1796875 1.0703125 C-2.234375 -0.1875 -2.234375 -0.1875 0 0 Z " fill="#0AAEEC" transform="translate(105.234375,55.1875)"/>
<path d="M0 0 C0.33 6.27 0.66 12.54 1 19 C-1.619375 20.485 -4.23875 21.97 -6.9375 23.5 C-8.17681274 24.20479492 -8.17681274 24.20479492 -9.44116211 24.92382812 C-10.08835205 25.28927734 -10.73554199 25.65472656 -11.40234375 26.03125 C-12.06741943 26.40830078 -12.73249512 26.78535156 -13.41772461 27.17382812 C-15 28 -15 28 -16 28 C-16.23329086 24.77206203 -16.37467674 21.54628768 -16.5 18.3125 C-16.60054688 16.94448242 -16.60054688 16.94448242 -16.703125 15.54882812 C-16.78246545 12.8215002 -16.7480902 10.62802202 -16 8 C-13.61701962 5.64615058 -11.02700947 4.36972087 -8 3 C-7.071875 2.401875 -6.14375 1.80375 -5.1875 1.1875 C-3 0 -3 0 0 0 Z " fill="#2D3F69" transform="translate(143,106)"/>
<path d="M0 0 C0.05469084 2.0205228 0.09310129 4.04148888 0.125 6.0625 C0.14820313 7.18785156 0.17140625 8.31320313 0.1953125 9.47265625 C-0.0235138 13.42465917 -0.43452407 16.3486447 -2 20 C-4.14867555 21.91276649 -6.49889424 23.15697509 -9.0625 24.4375 C-9.71283203 24.78748047 -10.36316406 25.13746094 -11.03320312 25.49804688 C-15.73844178 28 -15.73844178 28 -17 28 C-18.52726069 11.01346727 -18.52726069 11.01346727 -14.9140625 6.25 C-12.3286574 4.49101471 -9.8886254 3.1860871 -7 2 C-5.94039062 1.42958984 -5.94039062 1.42958984 -4.859375 0.84765625 C-3 0 -3 0 0 0 Z " fill="#2C406C" transform="translate(144,79)"/>
<path d="M0 0 C1.34400833 0.98560611 2.67607028 1.98758315 4 3 C6.300871 4.1006331 8.63289851 5.04405517 11 6 C11 7.32 11 8.64 11 10 C5.83857032 14.28020998 0.79579856 16 -5.875 16 C-11.0288257 15.20166229 -14.92736564 12.08275795 -19 9 C-14.09130178 3.45792136 -7.7328007 -2.37932329 0 0 Z " fill="#09ADED" transform="translate(130,70)"/>
<path d="M0 0 C1.010625 0.680625 2.02125 1.36125 3.0625 2.0625 C5.77031088 4.24952008 5.77031088 4.24952008 8.5625 3.9375 C11.08394917 3.06167035 11.08394917 3.06167035 13.4375 1.4375 C16.50307723 -0.28221405 18.53954332 -0.24142721 22 0 C22.33 1.32 22.66 2.64 23 4 C20.82708798 5.40440638 18.64185289 6.77156752 16.4375 8.125 C15.82841797 8.52332031 15.21933594 8.92164062 14.59179688 9.33203125 C11.05558457 11.4649847 9.6005402 12.08930447 5.375 11.4609375 C2.13045106 10.0564684 -0.57029963 8.55984562 -3.4375 6.5 C-4.30246094 5.8915625 -5.16742188 5.283125 -6.05859375 4.65625 C-6.69925781 4.1096875 -7.33992188 3.563125 -8 3 C-8 2.34 -8 1.68 -8 1 C-5.13391871 -0.43304064 -3.18699217 -0.30644155 0 0 Z " fill="#1AA2E0" transform="translate(119,102)"/>
<path d="M0 0 C0.66 0.33 1.32 0.66 2 1 C1.67 2.32 1.34 3.64 1 5 C7.435 8.465 7.435 8.465 14 12 C14 18.27 14 24.54 14 31 C14.66 31.33 15.32 31.66 16 32 C14.35 31.67 12.7 31.34 11 31 C10.34 32.32 9.68 33.64 9 35 C9.33 28.73 9.66 22.46 10 16 C9.34 16 8.68 16 8 16 C7.1028125 15.071875 7.1028125 15.071875 6.1875 14.125 C3.84546675 11.84988198 2.00616302 11.15621655 -1 10 C-2.875 8.6875 -2.875 8.6875 -4 7 C-3.875 4.4375 -3.875 4.4375 -3 2 C-2.01 1.34 -1.02 0.68 0 0 Z " fill="#1B80C4" transform="translate(134,63)"/>
<path d="M0 0 C0.5 2.6875 0.5 2.6875 0 6 C-3.29035265 8.96822022 -6.5321327 11 -11 11 C-11 15.95 -11 20.9 -11 26 C-12.65 26.66 -14.3 27.32 -16 28 C-17.37093901 10.90557535 -17.37093901 10.90557535 -14.20703125 6.5078125 C-11.84963973 4.98360291 -9.63600695 3.95308395 -7 3 C-5.845 2.38125 -4.69 1.7625 -3.5 1.125 C-1 0 -1 0 0 0 Z " fill="#254471" transform="translate(121,66)"/>
<path d="M0 0 C0.33 0.66 0.66 1.32 1 2 C1.825 2.309375 2.65 2.61875 3.5 2.9375 C4.7375 3.4634375 4.7375 3.4634375 6 4 C6.33 4.99 6.66 5.98 7 7 C6.34 7.66 5.68 8.32 5 9 C5.99 9.33 6.98 9.66 8 10 C8 10.66 8 11.32 8 12 C3.85644163 14.76237225 -0.06414424 15.09431572 -5 15 C-8.125 13.5625 -8.125 13.5625 -10 12 C-9.67 11.01 -9.34 10.02 -9 9 C-8.34 9 -7.68 9 -7 9 C-6.67 8.01 -6.34 7.02 -6 6 C-5.34 6 -4.68 6 -4 6 C-4.66 4.35 -5.32 2.7 -6 1 C-3.92446352 0.4465236 -2.15634036 0 0 0 Z " fill="#06AFF0" transform="translate(149,57)"/>
<path d="M0 0 C2.375 2 2.375 2 4 4 C3.67 4.66 3.34 5.32 3 6 C0.61435923 5.42415568 -1.66682784 4.77772405 -4 4 C-4.33 4.66 -4.66 5.32 -5 6 C-4.071875 6.12375 -3.14375 6.2475 -2.1875 6.375 C1 7 1 7 4 9 C4.4375 11.4375 4.4375 11.4375 4 14 C1.76218351 16.49602608 0.31953394 16.9534013 -3 17.4375 C-6.65146525 16.90499465 -7.78728121 15.89355535 -10 13 C-10 12.34 -10 11.68 -10 11 C-9.278125 11.144375 -8.55625 11.28875 -7.8125 11.4375 C-6.4203125 11.7159375 -6.4203125 11.7159375 -5 12 C-3.33333333 12.33333333 -1.66666667 12.66666667 0 13 C0 12.34 0 11.68 0 11 C-1.11375 10.71125 -2.2275 10.4225 -3.375 10.125 C-7 9 -7 9 -9 7 C-8.75 3.9375 -8.75 3.9375 -8 1 C-5.15916359 -0.42041821 -3.14522722 -0.31452272 0 0 Z " fill="#1366A1" transform="translate(74,159)"/>
<path d="M0 0 C3.26649356 0.78111803 5.67289744 1.77354438 8.4375 3.6875 C11.92549278 5.47403289 14.25254165 4.80827533 18 4 C18.125 6.875 18.125 6.875 18 10 C16 12 16 12 13.125 12.5625 C7.2018863 12.43674387 1.55991935 8.49668692 -3 5 C-3 4.01 -3 3.02 -3 2 C-2.01 1.34 -1.02 0.68 0 0 Z " fill="#0DAAEB" transform="translate(92,88)"/>
<path d="M0 0 C0 4.95 0 9.9 0 15 C-1.32 15 -2.64 15 -4 15 C-4.33 14.01 -4.66 13.02 -5 12 C-6.175625 11.8453125 -6.175625 11.8453125 -7.375 11.6875 C-10 11 -10 11 -12 8 C-11.8125 4.4375 -11.8125 4.4375 -11 1 C-6.8204355 -1.78637633 -4.85331323 -0.79562512 0 0 Z M-7 2 C-8.29633621 3.06645115 -8.29633621 3.06645115 -8.0625 5.5625 C-8.041875 6.366875 -8.02125 7.17125 -8 8 C-6.68 8 -5.36 8 -4 8 C-4 6.35 -4 4.7 -4 3 C-4.99 2.67 -5.98 2.34 -7 2 Z " fill="#14679D" transform="translate(103,164)"/>
<path d="M0 0 C0.33 0.66 0.66 1.32 1 2 C2.32303717 2.3721042 3.65737935 2.70630173 5 3 C6 4 6 4 6.11352539 5.85766602 C6.10828857 6.64842529 6.10305176 7.43918457 6.09765625 8.25390625 C6.09443359 9.10791016 6.09121094 9.96191406 6.08789062 10.84179688 C6.07951172 11.73962891 6.07113281 12.63746094 6.0625 13.5625 C6.05798828 14.46419922 6.05347656 15.36589844 6.04882812 16.29492188 C6.03700225 18.53001314 6.0205222 20.76497437 6 23 C4.35 22.67 2.7 22.34 1 22 C0.93941406 21.03578125 0.87882813 20.0715625 0.81640625 19.078125 C0.73261719 17.81484375 0.64882812 16.5515625 0.5625 15.25 C0.48128906 13.99703125 0.40007812 12.7440625 0.31640625 11.453125 C0.07484478 8.81682447 -0.24283934 6.51962706 -1 4 C-2.32 3.67 -3.64 3.34 -5 3 C-3.35 2.01 -1.7 1.02 0 0 Z " fill="#2877BA" transform="translate(142,98)"/>
<path d="M0 0 C2.9375 0.8125 2.9375 0.8125 4.9375 3.8125 C5.26193143 6.92704177 5.39679053 8.97497021 3.875 11.75 C0.72183176 13.47915678 -1.68758255 12.6715699 -5.0625 11.8125 C-7.0625 8.8125 -7.0625 8.8125 -6.875 5.25 C-5.81750076 0.77596477 -4.62931368 -0.28342737 0 0 Z M-2.0625 2.8125 C-2.3925 3.4725 -2.7225 4.1325 -3.0625 4.8125 C-1.7425 4.4825 -0.4225 4.1525 0.9375 3.8125 C-0.0525 3.4825 -1.0425 3.1525 -2.0625 2.8125 Z M-3.0625 7.8125 C-2.7325 8.4725 -2.4025 9.1325 -2.0625 9.8125 C-0.7425 9.1525 0.5775 8.4925 1.9375 7.8125 C0.2875 7.8125 -1.3625 7.8125 -3.0625 7.8125 Z " fill="#0E6CAC" transform="translate(124.0625,163.1875)"/>
<path d="M0 0 C0.928125 0.20625 1.85625 0.4125 2.8125 0.625 C1.8125 3.625 1.8125 3.625 -0.1875 4.625 C-0.44385503 6.92928213 -0.59342533 9.24591113 -0.6875 11.5625 C-0.96586691 18.40336691 -0.96586691 18.40336691 -3.1875 20.625 C-4.1775 20.625 -5.1675 20.625 -6.1875 20.625 C-6.27437496 17.50017438 -6.32784568 14.37565754 -6.375 11.25 C-6.40013672 10.36054687 -6.42527344 9.47109375 -6.45117188 8.5546875 C-6.46083984 7.70390625 -6.47050781 6.853125 -6.48046875 5.9765625 C-6.4961792 5.19104004 -6.51188965 4.40551758 -6.52807617 3.59619141 C-6.41568604 2.94569824 -6.3032959 2.29520508 -6.1875 1.625 C-3.1875 -0.375 -3.1875 -0.375 0 0 Z " fill="#29436E" transform="translate(111.1875,99.375)"/>
<path d="M0 0 C2.3125 0.9375 2.3125 0.9375 4.3125 3.9375 C4.6875 6.9375 4.6875 6.9375 4.3125 9.9375 C2.6875 11.875 2.6875 11.875 0.3125 12.9375 C-2.8125 12.8125 -2.8125 12.8125 -5.6875 11.9375 C-7.8485211 8.69596834 -8.32997553 7.70057099 -7.6875 3.9375 C-5.14416114 1.17616067 -3.81872524 -0.08880756 0 0 Z M-2.6875 2.9375 C-3.0175 3.5975 -3.3475 4.2575 -3.6875 4.9375 C-2.3675 4.6075 -1.0475 4.2775 0.3125 3.9375 C-0.6775 3.6075 -1.6675 3.2775 -2.6875 2.9375 Z M-3.6875 7.9375 C-3.3575 8.5975 -3.0275 9.2575 -2.6875 9.9375 C-1.3675 9.2775 -0.0475 8.6175 1.3125 7.9375 C-0.3375 7.9375 -1.9875 7.9375 -3.6875 7.9375 Z " fill="#13649C" transform="translate(159.6875,163.0625)"/>
<path d="M0 0 C2 2 2 2 2.3125 5.4375 C2 9 2 9 0.8125 10.9375 C-1.66049093 12.38718434 -3.17884512 12.42317323 -6 12 C-7.8125 10.9375 -7.8125 10.9375 -9 9 C-9.4375 5.5 -9.4375 5.5 -9 2 C-6.17266771 -1.35091234 -4.03066587 -1.37891201 0 0 Z M-4 2 C-4.66 2.66 -5.32 3.32 -6 4 C-4.68 3.67 -3.36 3.34 -2 3 C-2.66 2.67 -3.32 2.34 -4 2 Z M-5 7 C-5 7.66 -5 8.32 -5 9 C-3.68 8.67 -2.36 8.34 -1 8 C-2.32 7.67 -3.64 7.34 -5 7 Z " fill="#1069A7" transform="translate(88,164)"/>
<path d="M0 0 C0.928125 0.20625 1.85625 0.4125 2.8125 0.625 C4.44200412 4.74668689 5.07514601 7.33200357 3.8125 11.625 C-2.8125 12.875 -2.8125 12.875 -6.1875 10.625 C-6.001875 10.068125 -5.81625 9.51125 -5.625 8.9375 C-5.11198835 6.225867 -5.5234276 4.28128961 -6.1875 1.625 C-3.1875 -0.375 -3.1875 -0.375 0 0 Z M-2.1875 2.625 C-1.8575 3.285 -1.5275 3.945 -1.1875 4.625 C-0.5275 4.295 0.1325 3.965 0.8125 3.625 C-0.1775 3.295 -1.1675 2.965 -2.1875 2.625 Z M-3.1875 7.625 C-2.8575 8.285 -2.5275 8.945 -2.1875 9.625 C-1.1975 9.625 -0.2075 9.625 0.8125 9.625 C0.8125 8.965 0.8125 8.305 0.8125 7.625 C-0.5075 7.625 -1.8275 7.625 -3.1875 7.625 Z " fill="#1D6597" transform="translate(183.1875,163.375)"/>
<path d="M0 0 C1.32 0 2.64 0 4 0 C4 2.97 4 5.94 4 9 C4.66 8.67 5.32 8.34 6 8 C6.46523063 6.10466658 6.46523063 6.10466658 6.625 3.9375 C6.74875 2.638125 6.8725 1.33875 7 0 C8.32 0 9.64 0 11 0 C11 3.63 11 7.26 11 11 C6.66473162 11.86705368 5.00869538 12.11352649 1 11 C0 10 0 10 -0.09765625 7.71484375 C-0.08605469 6.79832031 -0.07445313 5.88179687 -0.0625 4.9375 C-0.05347656 4.01839844 -0.04445313 3.09929687 -0.03515625 2.15234375 C-0.02355469 1.44207031 -0.01195313 0.73179687 0 0 Z " fill="#176598" transform="translate(105,164)"/>
<path d="M0 0 C0.3046875 2.29296875 0.3046875 2.29296875 0 5 C-2.1171875 6.80078125 -2.1171875 6.80078125 -4.875 8.3125 C-5.77992188 8.82425781 -6.68484375 9.33601563 -7.6171875 9.86328125 C-10 11 -10 11 -12 11 C-12 12.65 -12 14.3 -12 16 C-15.875 15.125 -15.875 15.125 -17 14 C-17.5234375 11.73828125 -17.5234375 11.73828125 -17 9 C-14.7826339 6.98456979 -12.24277827 5.62297878 -9.625 4.1875 C-8.57699219 3.57745117 -8.57699219 3.57745117 -7.5078125 2.95507812 C-2.34263393 0 -2.34263393 0 0 0 Z " fill="#204978" transform="translate(143,54)"/>
<path d="M0 0 C3.3 0 6.6 0 10 0 C9.25 4.75 9.25 4.75 7 7 C8.32 7.66 9.64 8.32 11 9 C10.67 9.99 10.34 10.98 10 12 C6.7 12 3.4 12 0 12 C0.54723683 8.62537285 1.0549 6.91765 3 4 C2.01 3.67 1.02 3.34 0 3 C0 2.01 0 1.02 0 0 Z " fill="#136AA5" transform="translate(141,164)"/>
<path d="M0 0 C0.99 0 1.98 0 3 0 C3 5.94 3 11.88 3 18 C3.66 18.33 4.32 18.66 5 19 C3.35 18.67 1.7 18.34 0 18 C-0.66 19.32 -1.32 20.64 -2 22 C-2 15.4 -2 8.8 -2 2 C-1.34 2 -0.68 2 0 2 C0 1.34 0 0.68 0 0 Z " fill="#2777B7" transform="translate(145,76)"/>
<path d="M0 0 C0.99 0 1.98 0 3 0 C3 5.61 3 11.22 3 17 C1.68 16.67 0.36 16.34 -1 16 C-1.02685095 13.52076199 -1.04676547 11.0418116 -1.0625 8.5625 C-1.07506836 7.50192383 -1.07506836 7.50192383 -1.08789062 6.41992188 C-1.09653588 4.61306441 -1.05220011 2.80612397 -1 1 C-0.67 0.67 -0.34 0.34 0 0 Z " fill="#0F64A3" transform="translate(131,159)"/>
<path d="M0 0 C0 0.66 0 1.32 0 2 C-0.66 2 -1.32 2 -2 2 C-2 2.66 -2 3.32 -2 4 C-5.08809695 5.76462683 -6.23312136 6 -10 6 C-10 6.66 -10 7.32 -10 8 C-12.25 8.75 -12.25 8.75 -15 9 C-17.3125 7.0625 -17.3125 7.0625 -19 5 C-16.69 5 -14.38 5 -12 5 C-12 4.34 -12 3.68 -12 3 C-10.75336669 2.49166409 -9.50250613 1.99368855 -8.25 1.5 C-7.55390625 1.2215625 -6.8578125 0.943125 -6.140625 0.65625 C-4 0 -4 0 0 0 Z " fill="#07AFEF" transform="translate(140,103)"/>
<path d="M0 0 C2.31 0.66 4.62 1.32 7 2 C7.33 3.32 7.66 4.64 8 6 C6.35 6.33 4.7 6.66 3 7 C3 7.66 3 8.32 3 9 C0.69 9.66 -1.62 10.32 -4 11 C-4 9.35 -4 7.7 -4 6 C-2.68 5.67 -1.36 5.34 0 5 C0 3.35 0 1.7 0 0 Z " fill="#0AADF1" transform="translate(110,60)"/>
<path d="M0 0 C1.32 0 2.64 0 4 0 C4 4.62 4 9.24 4 14 C2.35 14.33 0.7 14.66 -1 15 C-0.67 10.05 -0.34 5.1 0 0 Z " fill="#18699B" transform="translate(171,164)"/>
<path d="M0 0 C0.8971875 0.309375 0.8971875 0.309375 1.8125 0.625 C1.8125 1.615 1.8125 2.605 1.8125 3.625 C-3.06554878 8.50304878 -3.06554878 8.50304878 -7.0625 8.9375 C-8.114375 8.7828125 -8.114375 8.7828125 -9.1875 8.625 C-8.62057299 5.33682333 -7.7315846 3.77768697 -5.1875 1.625 C-2.1875 -0.375 -2.1875 -0.375 0 0 Z " fill="#08AEEC" transform="translate(143.1875,59.375)"/>
<path d="M0 0 C0.33 0 0.66 0 1 0 C1 6.27 1 12.54 1 19 C-0.65 18.67 -2.3 18.34 -4 18 C-4.33 13.05 -4.66 8.1 -5 3 C-4.34 3 -3.68 3 -3 3 C-3 5.97 -3 8.94 -3 12 C-2.34 11.67 -1.68 11.34 -1 11 C-0.5316735 8.41394668 -0.5316735 8.41394668 -0.375 5.4375 C-0.30023438 4.42558594 -0.22546875 3.41367188 -0.1484375 2.37109375 C-0.09945312 1.58863281 -0.05046875 0.80617188 0 0 Z " fill="#2E6CA6" transform="translate(147,102)"/>
<path d="M0 0 C0 4.29 0 8.58 0 13 C-2 9 -2 9 -2 7 C-2.66 7 -3.32 7 -4 7 C-4 6.34 -4 5.68 -4 5 C-4.99 4.67 -5.98 4.34 -7 4 C-7 4.66 -7 5.32 -7 6 C-7.99 6 -8.98 6 -10 6 C-10 6.66 -10 7.32 -10 8 C-11.65 8 -13.3 8 -15 8 C-12.41062662 5.95007941 -9.70679454 4.10769646 -6.9375 2.3125 C-6.26589844 1.87550781 -5.59429687 1.43851562 -4.90234375 0.98828125 C-3 0 -3 0 0 0 Z " fill="#234D80" transform="translate(144,79)"/>
<path d="M0 0 C0.66 0.33 1.32 0.66 2 1 C1.67 2.32 1.34 3.64 1 5 C0.34 5 -0.32 5 -1 5 C-1 5.66 -1 6.32 -1 7 C0.175625 7.0928125 0.175625 7.0928125 1.375 7.1875 C2.674375 7.5896875 2.674375 7.5896875 4 8 C5.3125 10.5625 5.3125 10.5625 6 13 C1.20983041 10.76537994 -2.98745115 8.51098025 -7 5 C-4.69 3.35 -2.38 1.7 0 0 Z " fill="#11A7E6" transform="translate(116,48)"/>
<path d="M0 0 C0.99 0 1.98 0 3 0 C2.63177876 2.49407197 2.37914556 3.68510952 0.40527344 5.32446289 C-0.26987305 5.7033667 -0.94501953 6.08227051 -1.640625 6.47265625 C-2.38183594 6.89740234 -3.12304688 7.32214844 -3.88671875 7.75976562 C-4.66660156 8.18966797 -5.44648438 8.61957031 -6.25 9.0625 C-7.01441406 9.49626953 -7.77882812 9.93003906 -8.56640625 10.37695312 C-10.04630142 11.21658277 -11.52991116 12.04970704 -13.01757812 12.87548828 C-14.68378349 13.82062891 -16.30869243 14.83805304 -17.921875 15.87109375 C-18.60765625 16.24363281 -19.2934375 16.61617187 -20 17 C-20.66 16.67 -21.32 16.34 -22 16 C-18.53920999 12.97180874 -15.0897937 10.97922111 -10.9921875 9 C-7.19559098 7.09425743 -3.87784686 5.17046248 -1.3125 1.75 C-0.879375 1.1725 -0.44625 0.595 0 0 Z " fill="#2F3A58" transform="translate(184,121)"/>
<path d="M0 0 C0 3.66666667 0 7.33333333 0 11 C1.65 10.67 3.3 10.34 5 10 C5 10.99 5 11.98 5 13 C5.66 13 6.32 13 7 13 C7 13.66 7 14.32 7 15 C2.95665186 13.77759242 -0.50639197 12.39561694 -4 10 C-5.35439668 7.29120665 -5.06501451 4.99066732 -5 2 C-4.01 2 -3.02 2 -2 2 C-1.34 1.34 -0.68 0.68 0 0 Z " fill="#2678BA" transform="translate(71,116)"/>
<path d="M0 0 C0 1.32 0 2.64 0 4 C-2.97 5.32 -5.94 6.64 -9 8 C-9.33 7.01 -9.66 6.02 -10 5 C-8.35 4.67 -6.7 4.34 -5 4 C-5.33 3.67 -5.66 3.34 -6 3 C-8.31 3.66 -10.62 4.32 -13 5 C-8.74525173 0.44134113 -6.27115556 -1.74198766 0 0 Z " fill="#1EA0D8" transform="translate(163,90)"/>
<path d="M0 0 C0.763125 0.20625 1.52625 0.4125 2.3125 0.625 C2.3125 1.285 2.3125 1.945 2.3125 2.625 C1.3225 2.955 0.3325 3.285 -0.6875 3.625 C-0.0275 4.223125 0.6325 4.82125 1.3125 5.4375 C3.3125 7.625 3.3125 7.625 3.3125 10.625 C2.6525 10.625 1.9925 10.625 1.3125 10.625 C1.3125 9.635 1.3125 8.645 1.3125 7.625 C-1.6575 7.13 -1.6575 7.13 -4.6875 6.625 C-5.0175 4.975 -5.3475 3.325 -5.6875 1.625 C-2.6875 -0.375 -2.6875 -0.375 0 0 Z " fill="#1867A1" transform="translate(182.6875,163.375)"/>
<path d="M0 0 C0.928125 0.20625 1.85625 0.4125 2.8125 0.625 C2.4825 1.615 2.1525 2.605 1.8125 3.625 C-0.4975 3.295 -2.8075 2.965 -5.1875 2.625 C-4.8575 7.575 -4.5275 12.525 -4.1875 17.625 C-3.1975 17.295 -2.2075 16.965 -1.1875 16.625 C-1.8475 17.945 -2.5075 19.265 -3.1875 20.625 C-4.1775 20.625 -5.1675 20.625 -6.1875 20.625 C-6.27437496 17.50017438 -6.32784568 14.37565754 -6.375 11.25 C-6.40013672 10.36054687 -6.42527344 9.47109375 -6.45117188 8.5546875 C-6.46083984 7.70390625 -6.47050781 6.853125 -6.48046875 5.9765625 C-6.4961792 5.19104004 -6.51188965 4.40551758 -6.52807617 3.59619141 C-6.41568604 2.94569824 -6.3032959 2.29520508 -6.1875 1.625 C-3.1875 -0.375 -3.1875 -0.375 0 0 Z " fill="#1D3B6C" transform="translate(111.1875,99.375)"/>
<path d="M0 0 C1.32 0 2.64 0 4 0 C4 3.63 4 7.26 4 11 C2.68 11.33 1.36 11.66 0 12 C0 8.04 0 4.08 0 0 Z " fill="#1066A5" transform="translate(136,164)"/>
<path d="M0 0 C2.9375 0.8125 2.9375 0.8125 4.9375 3.8125 C4.5625 6 4.5625 6 3.9375 7.8125 C3.9375 6.8225 3.9375 5.8325 3.9375 4.8125 C1.08671909 4.04533149 1.08671909 4.04533149 -2.0625 3.8125 C-3.87549492 5.04204016 -3.87549492 5.04204016 -5.0625 6.8125 C-5.7225 7.4725 -6.3825 8.1325 -7.0625 8.8125 C-6.75 5.4375 -6.75 5.4375 -6.0625 1.8125 C-3.0625 -0.1875 -3.0625 -0.1875 0 0 Z " fill="#145E93" transform="translate(124.0625,163.1875)"/>
<path d="M0 0 C0.66 0.33 1.32 0.66 2 1 C0.6875 3 0.6875 3 -1 5 C-1.99 5 -2.98 5 -4 5 C-3.505 5.45375 -3.01 5.9075 -2.5 6.375 C-1 8 -1 8 -1 10 C0.32 10.33 1.64 10.66 3 11 C3 11.66 3 12.32 3 13 C-1.10958767 11.54955729 -4.43258745 9.48889248 -8 7 C-5.42215154 4.35247996 -3.08351902 2.05567935 0 0 Z " fill="#16A4E7" transform="translate(119,72)"/>
<path d="M0 0 C3.465 1.485 3.465 1.485 7 3 C6.01 3.495 6.01 3.495 5 4 C5 6.31 5 8.62 5 11 C4.01 11 3.02 11 2 11 C1.4375 9.0625 1.4375 9.0625 1 7 C1.33 6.67 1.66 6.34 2 6 C1.34 5.67 0.68 5.34 0 5 C0 3.35 0 1.7 0 0 Z " fill="#207AC0" transform="translate(120,111)"/>
<path d="M0 0 C1.231394 2.46278801 1.07159196 4.2795055 1 7 C1.7425 6.835 2.485 6.67 3.25 6.5 C6 6 6 6 10 6 C10.33 5.01 10.66 4.02 11 3 C10.6875 5.375 10.6875 5.375 10 8 C7 10 7 10 3.9375 9.8125 C1 9 1 9 -1 6 C-1.1875 3.375 -1.1875 3.375 -1 1 C-0.67 0.67 -0.34 0.34 0 0 Z " fill="#1A649B" transform="translate(153,166)"/>
<path d="M0 0 C3.79049707 1.42749981 7.27122456 3.16236542 10.8125 5.125 C12.27623047 5.93324219 12.27623047 5.93324219 13.76953125 6.7578125 C14.50558594 7.16773438 15.24164063 7.57765625 16 8 C12.2194645 9.2601785 11.06627151 8.46890351 7.4375 7 C5.64671503 6.27702705 3.83637881 5.59775711 2 5 C1.01 5.495 1.01 5.495 0 6 C0 4.02 0 2.04 0 0 Z " fill="#2D74AB" transform="translate(107,128)"/>
<path d="M0 0 C0.33 0 0.66 0 1 0 C1.33 4.95 1.66 9.9 2 15 C2.33 15 2.66 15 3 15 C3.33 11.04 3.66 7.08 4 3 C4.33 3 4.66 3 5 3 C5 7.62 5 12.24 5 17 C3.35 17.66 1.7 18.32 0 19 C0 12.73 0 6.46 0 0 Z " fill="#1D4678" transform="translate(105,75)"/>
<path d="M0 0 C2.475 0.99 2.475 0.99 5 2 C5 2.99 5 3.98 5 5 C2.4453125 6.82421875 2.4453125 6.82421875 -0.875 8.6875 C-1.96554688 9.31011719 -3.05609375 9.93273438 -4.1796875 10.57421875 C-7 12 -7 12 -9 12 C-9 11.34 -9 10.68 -9 10 C-7.02 9.34 -5.04 8.68 -3 8 C-3 7.34 -3 6.68 -3 6 C-1.68 6 -0.36 6 1 6 C1 5.34 1 4.68 1 4 C1.66 4 2.32 4 3 4 C3 3.34 3 2.68 3 2 C2.01 2 1.02 2 0 2 C-0.33 2.66 -0.66 3.32 -1 4 C-0.67 2.68 -0.34 1.36 0 0 Z " fill="#25A0D9" transform="translate(180,51)"/>
<path d="M0 0 C2.63216159 1.11667462 4.0962703 2.83077789 6.0625 4.875 C5.24265625 4.86339844 4.4228125 4.85179687 3.578125 4.83984375 C2.50046875 4.83082031 1.4228125 4.82179688 0.3125 4.8125 C-0.75484375 4.80089844 -1.8221875 4.78929687 -2.921875 4.77734375 C-5.47118501 4.85989913 -7.51683591 5.12882442 -9.9375 5.875 C-2.49327689 -0.16085657 -2.49327689 -0.16085657 0 0 Z " fill="#2AAADE" transform="translate(104.9375,55.125)"/>
<path d="M0 0 C0 0.66 0 1.32 0 2 C-1.98 2.33 -3.96 2.66 -6 3 C-5.85915204 4.79206547 -5.71216299 6.58364917 -5.5625 8.375 C-5.48128906 9.37273437 -5.40007812 10.37046875 -5.31640625 11.3984375 C-5.15034374 13.97927613 -5.15034374 13.97927613 -4 16 C-4.99 16.33 -5.98 16.66 -7 17 C-7 11.39 -7 5.78 -7 0 C-3.86650268 -1.04449911 -3.01031744 -0.93423645 0 0 Z " fill="#264171" transform="translate(133,139)"/>
<path d="M0 0 C0 1.65 0 3.3 0 5 C-3.78187881 6.83691257 -5.94568308 7.15837626 -10 6 C-4.4 0 -4.4 0 0 0 Z " fill="#144571" transform="translate(143,54)"/>
<path d="M0 0 C0.66 0 1.32 0 2 0 C2 1.65 2 3.3 2 5 C3.65 5 5.3 5 7 5 C7.33 3.68 7.66 2.36 8 1 C8.33 2.98 8.66 4.96 9 7 C6.69 6.67 4.38 6.34 2 6 C2 6.66 2 7.32 2 8 C1.34 8 0.68 8 0 8 C-0.79953138 4.71303767 -1.09658936 3.28976808 0 0 Z " fill="#126EB2" transform="translate(154,165)"/>
<path d="M0 0 C2.64 0 5.28 0 8 0 C8 1.32 8 2.64 8 4 C5.69 4 3.38 4 1 4 C0.67 2.68 0.34 1.36 0 0 Z " fill="#0B68AB" transform="translate(143,172)"/>
<path d="M0 0 C3.125 0.75 3.125 0.75 6 2 C6.33 2.66 6.66 3.32 7 4 C5.35 4 3.7 4 2 4 C2 4.66 2 5.32 2 6 C0.35 5.67 -1.3 5.34 -3 5 C-3 4.01 -3 3.02 -3 2 C-2.01 1.34 -1.02 0.68 0 0 Z " fill="#1EA6E1" transform="translate(92,88)"/>
<path d="M0 0 C1.3125 2.0625 1.3125 2.0625 2 4 C1.01 3.34 0.02 2.68 -1 2 C-3.60280568 2.32041397 -3.60280568 2.32041397 -6 3 C-6.33 3 -6.66 3 -7 3 C-7.33 4.98 -7.66 6.96 -8 9 C-8.33 9 -8.66 9 -9 9 C-9.48492623 2.57472739 -9.48492623 2.57472739 -7.3125 0 C-4.35289466 -1.27982934 -2.98790191 -1.17943497 0 0 Z " fill="#1C6496" transform="translate(88,164)"/>
<path d="M0 0 C0.33 0.66 0.66 1.32 1 2 C3.02463255 2.65213292 3.02463255 2.65213292 5 3 C5 3.66 5 4.32 5 5 C3.35 5.66 1.7 6.32 0 7 C-0.33 6.01 -0.66 5.02 -1 4 C-3.01508358 3.26676204 -3.01508358 3.26676204 -5 3 C-3.35 2.01 -1.7 1.02 0 0 Z " fill="#1E7EBD" transform="translate(142,98)"/>
<path d="M0 0 C1.32 0.33 2.64 0.66 4 1 C2.44632634 2.01365893 0.88162164 3.01042256 -0.6875 4 C-1.99267578 4.8353125 -1.99267578 4.8353125 -3.32421875 5.6875 C-6.16973337 7.08325608 -7.8788594 7.26993648 -11 7 C-10.34 5.68 -9.68 4.36 -9 3 C-7.68 3.33 -6.36 3.66 -5 4 C-5 3.34 -5 2.68 -5 2 C-3.35 2 -1.7 2 0 2 C0 1.34 0 0.68 0 0 Z " fill="#23A8DF" transform="translate(92,57)"/>
<path d="M0 0 C0 0.66 0 1.32 0 2 C-0.66 2 -1.32 2 -2 2 C-2 2.66 -2 3.32 -2 4 C-5.69418201 5.231394 -8.2056261 4.64432764 -12 4 C-7.87571444 0.61219401 -5.3248712 0 0 0 Z " fill="#10A8E7" transform="translate(140,103)"/>
<path d="M0 0 C0.33 1.98 0.66 3.96 1 6 C-0.98 6.66 -2.96 7.32 -5 8 C-5 5.69 -5 3.38 -5 1 C-1.125 0 -1.125 0 0 0 Z " fill="#2275B3" transform="translate(126,63)"/>
<path d="M0 0 C0.66 0.66 1.32 1.32 2 2 C0.9375 3.5625 0.9375 3.5625 -1 5 C-4.625 4.8125 -4.625 4.8125 -8 4 C-8.33 3.34 -8.66 2.68 -9 2 C-7.54536519 1.61090015 -6.08608793 1.23911971 -4.625 0.875 C-3.40683594 0.56175781 -3.40683594 0.56175781 -2.1640625 0.2421875 C-1.44992188 0.16226563 -0.73578125 0.08234375 0 0 Z " fill="#12639C" transform="translate(127,171)"/>
<path d="M0 0 C0.66 0.33 1.32 0.66 2 1 C1.01 1.33 0.02 1.66 -1 2 C-1.309375 2.66 -1.61875 3.32 -1.9375 4 C-3 6 -3 6 -5.125 6.75 C-6.053125 6.87375 -6.053125 6.87375 -7 7 C-7.33 8.32 -7.66 9.64 -8 11 C-8.5 8.3125 -8.5 8.3125 -8 5 C-5.59794368 2.82827785 -3.00381571 1.21238345 0 0 Z " fill="#1B4A79" transform="translate(135,109)"/>
<path d="M0 0 C0.33 0.99 0.66 1.98 1 3 C-4.94 6.465 -4.94 6.465 -11 10 C-11.33 9.34 -11.66 8.68 -12 8 C-11.67 7.34 -11.34 6.68 -11 6 C-7.9375 5.375 -7.9375 5.375 -5 5 C-5 4.34 -5 3.68 -5 3 C-3.35 2.67 -1.7 2.34 0 2 C0 1.34 0 0.68 0 0 Z " fill="#1CA1DA" transform="translate(118,64)"/>
<path d="M0 0 C0.66 0.33 1.32 0.66 2 1 C1.79375 1.598125 1.5875 2.19625 1.375 2.8125 C0.69328085 5.28450846 0.69328085 5.28450846 3 8 C0.69 8 -1.62 8 -4 8 C-3.6875 5.125 -3.6875 5.125 -3 2 C-2.01 1.34 -1.02 0.68 0 0 Z " fill="#257FBC" transform="translate(134,63)"/>
<path d="M0 0 C0.66 0.33 1.32 0.66 2 1 C-0.89217759 5.69978858 -0.89217759 5.69978858 -4.046875 6.5546875 C-6.02330745 6.78597215 -8.01256369 6.90062818 -10 7 C-7.20283196 3.70921407 -3.80471422 1.93694542 0 0 Z " fill="#1E4978" transform="translate(185,55)"/>
<path d="M0 0 C1.32 0 2.64 0 4 0 C4 0.66 4 1.32 4 2 C5.98 2 7.96 2 10 2 C10 2.66 10 3.32 10 4 C10.66 4 11.32 4 12 4 C12 4.99 12 5.98 12 7 C7.69235185 5.43358249 3.93828536 3.31663844 0 1 C0 0.67 0 0.34 0 0 Z " fill="#15A1E0" transform="translate(68,56)"/>
<path d="M0 0 C0.125 2.875 0.125 2.875 0 6 C-2 8 -2 8 -5.625 8.125 C-6.73875 8.08375 -7.8525 8.0425 -9 8 C-9 7.67 -9 7.34 -9 7 C-5.535 6.505 -5.535 6.505 -2 6 C-2 5.34 -2 4.68 -2 4 C-3.65 3.67 -5.3 3.34 -7 3 C-2.5 0 -2.5 0 0 0 Z " fill="#1EA0DA" transform="translate(110,92)"/>
<path d="M0 0 C2.74377251 0.82436215 4.95284784 1.90818755 7.42578125 3.34765625 C8.21597656 3.80269531 9.00617188 4.25773437 9.8203125 4.7265625 C10.70783203 5.25056641 10.70783203 5.25056641 11.61328125 5.78515625 C8.61328125 6.78515625 8.61328125 6.78515625 6.5703125 6.0078125 C5.86261719 5.62496094 5.15492188 5.24210937 4.42578125 4.84765625 C3.71035156 4.46738281 2.99492187 4.08710937 2.2578125 3.6953125 C1.71511719 3.39496094 1.17242187 3.09460937 0.61328125 2.78515625 C0.61328125 2.12515625 0.61328125 1.46515625 0.61328125 0.78515625 C-1.36671875 1.11515625 -3.34671875 1.44515625 -5.38671875 1.78515625 C-2.38671875 -0.21484375 -2.38671875 -0.21484375 0 0 Z " fill="#2FA8DC" transform="translate(148.38671875,56.21484375)"/>
<path d="M0 0 C0.68707031 0.08378906 1.37414062 0.16757812 2.08203125 0.25390625 C3.43361328 0.40666016 3.43361328 0.40666016 4.8125 0.5625 C5.70582031 0.66691406 6.59914062 0.77132812 7.51953125 0.87890625 C10.13375572 1.15658709 10.13375572 1.15658709 13 0 C13 0.66 13 1.32 13 2 C12.01 2.495 12.01 2.495 11 3 C10.67 3.99 10.34 4.98 10 6 C6.40992874 4.66654496 3.20429093 3.1056769 0 1 C0 0.67 0 0.34 0 0 Z " fill="#24A9E2" transform="translate(133,44)"/>
<path d="M0 0 C0.33 0 0.66 0 1 0 C1 6.27 1 12.54 1 19 C-1.475 18.01 -1.475 18.01 -4 17 C-2.68 16.67 -1.36 16.34 0 16 C0 10.72 0 5.44 0 0 Z " fill="#376CA0" transform="translate(126,115)"/>
<path d="M0 0 C-1.11666174 3.34998521 -1.74694925 3.79340222 -4.5625 5.6875 C-5.20316406 6.12449219 -5.84382812 6.56148438 -6.50390625 7.01171875 C-6.99761719 7.33785156 -7.49132812 7.66398437 -8 8 C-8.66 7.01 -9.32 6.02 -10 5 C-8.71186658 4.16121545 -7.41936744 3.32913217 -6.125 2.5 C-5.40570313 2.0359375 -4.68640625 1.571875 -3.9453125 1.09375 C-2 0 -2 0 0 0 Z " fill="#2D3A5A" transform="translate(165,116)"/>
<path d="M0 0 C0 4.62 0 9.24 0 14 C-0.33 14 -0.66 14 -1 14 C-1.02578125 13.30132812 -1.0515625 12.60265625 -1.078125 11.8828125 C-1.13484375 10.97273438 -1.1915625 10.06265625 -1.25 9.125 C-1.29640625 8.22007813 -1.3428125 7.31515625 -1.390625 6.3828125 C-1.75611148 3.82889456 -1.75611148 3.82889456 -4.046875 2.6796875 C-4.69140625 2.45539063 -5.3359375 2.23109375 -6 2 C-3 0 -3 0 0 0 Z " fill="#204270" transform="translate(143,106)"/>
<path d="M0 0 C-3.19990508 2.74277578 -6.00499382 4.6302836 -10 6 C-10 5.01 -10 4.02 -10 3 C-8.68 3 -7.36 3 -6 3 C-6 2.34 -6 1.68 -6 1 C-6.66 0.67 -7.32 0.34 -8 0 C-5.13822943 -1.43088528 -3.06624227 -0.59991697 0 0 Z " fill="#1C4977" transform="translate(137,101)"/>
<path d="M0 0 C0 0.66 0 1.32 0 2 C-0.66 2 -1.32 2 -2 2 C-1.773125 2.598125 -1.54625 3.19625 -1.3125 3.8125 C-1.209375 4.534375 -1.10625 5.25625 -1 6 C-2.4375 7.75 -2.4375 7.75 -4 9 C-5 8 -5 8 -5.0625 4.4375 C-5.041875 3.303125 -5.02125 2.16875 -5 1 C-2 0 -2 0 0 0 Z " fill="#254872" transform="translate(173,63)"/>
<path d="M0 0 C0.66 0.33 1.32 0.66 2 1 C1.67 2.32 1.34 3.64 1 5 C0.34 5 -0.32 5 -1 5 C-1.33 5.66 -1.66 6.32 -2 7 C-3.65 6.67 -5.3 6.34 -7 6 C-4.74259377 3.66475218 -2.7194239 1.81294927 0 0 Z " fill="#29ACE0" transform="translate(116,48)"/>
<path d="M0 0 C0.33 0.66 0.66 1.32 1 2 C5.455 1.505 5.455 1.505 10 1 C6.4912812 4.09592835 3.50802601 5.74194623 -1 7 C-0.67 4.69 -0.34 2.38 0 0 Z " fill="#21AADA" transform="translate(97,50)"/>
<path d="M0 0 C2.31 0 4.62 0 7 0 C-0.71428571 6 -0.71428571 6 -4 6 C-4 5.34 -4 4.68 -4 4 C-3.01 4 -2.02 4 -1 4 C-0.67 2.68 -0.34 1.36 0 0 Z " fill="#24A5E2" transform="translate(111,45)"/>
<path d="M0 0 C0 0.66 0 1.32 0 2 C-1.65 2.33 -3.3 2.66 -5 3 C-5 4.32 -5 5.64 -5 7 C-7.97 6.505 -7.97 6.505 -11 6 C-3.8 0 -3.8 0 0 0 Z " fill="#29A9DA" transform="translate(107,31)"/>
<path d="M0 0 C-0.33 0.99 -0.66 1.98 -1 3 C-1.66 3 -2.32 3 -3 3 C-3 7.95 -3 12.9 -3 18 C-3.33 18 -3.66 18 -4 18 C-4 12.39 -4 6.78 -4 1 C-2 0 -2 0 0 0 Z " fill="#20487A" transform="translate(152,100)"/>
<path d="M0 0 C-0.33 0.99 -0.66 1.98 -1 3 C-3.64 3 -6.28 3 -9 3 C-8.67 2.01 -8.34 1.02 -8 0 C-5.13822943 -1.43088528 -3.06624227 -0.59991697 0 0 Z " fill="#1C457C" transform="translate(114,100)"/>
<path d="M0 0 C1.32 0 2.64 0 4 0 C4 0.66 4 1.32 4 2 C5.65 1.67 7.3 1.34 9 1 C9 1.99 9 2.98 9 4 C9.66 4 10.32 4 11 4 C11 4.66 11 5.32 11 6 C6.49197399 4.74194623 3.5087188 3.09592835 0 0 Z " fill="#2E71A3" transform="translate(67,125)"/>
<path d="M0 0 C0.33 0.66 0.66 1.32 1 2 C0.01 2.66 -0.98 3.32 -2 4 C-2.33 4.99 -2.66 5.98 -3 7 C-5.97 6.505 -5.97 6.505 -9 6 C-6.11912454 3.59927045 -3.43595166 1.52708963 0 0 Z " fill="#25ABDB" transform="translate(95,37)"/>
<path d="M0 0 C1.32 0.99 2.64 1.98 4 3 C2.35 3.33 0.7 3.66 -1 4 C-0.67 5.32 -0.34 6.64 0 8 C-0.99 8 -1.98 8 -3 8 C-2.45276317 4.62537285 -1.9451 2.91765 0 0 Z " fill="#126599" transform="translate(144,168)"/>
<path d="M0 0 C0.66 0 1.32 0 2 0 C2 2.97 2 5.94 2 9 C1.01 9.33 0.02 9.66 -1 10 C-0.67 6.7 -0.34 3.4 0 0 Z " fill="#076FB3" transform="translate(113,165)"/>
<path d="M0 0 C1.32 0 2.64 0 4 0 C3.67 1.65 3.34 3.3 3 5 C0.97954558 4.39816251 -1.02111039 3.72693904 -3 3 C-3.33 2.34 -3.66 1.68 -4 1 C-2.68 1.33 -1.36 1.66 0 2 C0 1.34 0 0.68 0 0 Z " fill="#2D74AB" transform="translate(82,130)"/>
<path d="M0 0 C0.8353125 0.37125 0.8353125 0.37125 1.6875 0.75 C1.6875 1.74 1.6875 2.73 1.6875 3.75 C-1.2825 3.75 -4.2525 3.75 -7.3125 3.75 C-2.88173077 -0.31153846 -2.88173077 -0.31153846 0 0 Z " fill="#17A1DC" transform="translate(143.3125,59.25)"/>
<path d="M0 0 C0 0.66 0 1.32 0 2 C-1.98 2.66 -3.96 3.32 -6 4 C-6.33 2.68 -6.66 1.36 -7 0 C-3.98968256 -0.93423645 -3.13349732 -1.04449911 0 0 Z " fill="#234270" transform="translate(138,60)"/>
<path d="M0 0 C2.97 0.495 2.97 0.495 6 1 C6 1.66 6 2.32 6 3 C7.32 2.67 8.64 2.34 10 2 C10.33 2.66 10.66 3.32 11 4 C10.34 4.66 9.68 5.32 9 6 C6.03 4.35 3.06 2.7 0 1 C0 0.67 0 0.34 0 0 Z " fill="#27ABDC" transform="translate(147,52)"/>
<path d="M0 0 C1.9375 0.8125 1.9375 0.8125 4 2 C4.33 2.99 4.66 3.98 5 5 C4.01 5.495 4.01 5.495 3 6 C3 5.34 3 4.68 3 4 C0.69 3.67 -1.62 3.34 -4 3 C-2.68 2.01 -1.36 1.02 0 0 Z " fill="#1AABE0" transform="translate(72,50)"/>
<path d="M0 0 C3.59007126 1.33345504 6.79570907 2.8943231 10 5 C10 5.33 10 5.66 10 6 C8.35 6 6.7 6 5 6 C5 5.34 5 4.68 5 4 C4.01 4 3.02 4 2 4 C2 3.34 2 2.68 2 2 C1.34 2 0.68 2 0 2 C0 1.34 0 0.68 0 0 Z " fill="#2CACDC" transform="translate(129,45)"/>
<path d="M0 0 C1.98 0.495 1.98 0.495 4 1 C3.67 2.32 3.34 3.64 3 5 C1.68 4.67 0.36 4.34 -1 4 C-0.67 2.68 -0.34 1.36 0 0 Z " fill="#1C6799" transform="translate(166,171)"/>
<path d="M0 0 C1.67542976 0.28604898 3.34385343 0.61781233 5 1 C2.66666667 3.33333333 0.33333333 5.66666667 -2 8 C-1.125 1.125 -1.125 1.125 0 0 Z " fill="#19699D" transform="translate(119,164)"/>
<path d="M0 0 C0 0.99 0 1.98 0 3 C-2.64 3.33 -5.28 3.66 -8 4 C-7.67 3.01 -7.34 2.02 -7 1 C-2.25 0 -2.25 0 0 0 Z " fill="#01B1F1" transform="translate(172,57)"/>
<path d="M0 0 C0.33 0.99 0.66 1.98 1 3 C-0.953125 2.44661458 -2.90625 1.89322917 -4.859375 1.33984375 C-7.21958796 0.96513841 -8.74419051 1.27346676 -11 2 C-11 1.34 -11 0.68 -11 0 C-6.94952424 -1.35015859 -4.2079832 -0.62084998 0 0 Z " fill="#2DA8D9" transform="translate(132,41)"/>
<path d="M0 0 C-3 2 -3 2 -6 2 C-6 2.66 -6 3.32 -6 4 C-7.65 4 -9.3 4 -11 4 C-4.45754717 -1.33726415 -4.45754717 -1.33726415 0 0 Z " fill="#2BA8DC" transform="translate(128,21)"/>
<path d="M0 0 C4.75 0.75 4.75 0.75 7 3 C7 3.99 7 4.98 7 6 C6.34 6 5.68 6 5 6 C5 5.01 5 4.02 5 3 C3.35 2.67 1.7 2.34 0 2 C0 1.34 0 0.68 0 0 Z " fill="#0E6EAC" transform="translate(179,168)"/>
<path d="M0 0 C2.31 0 4.62 0 7 0 C7.66 1.65 8.32 3.3 9 5 C5.54074837 3.7508258 2.85306797 2.32472205 0 0 Z " fill="#2BAADC" transform="translate(157,58)"/>
<path d="M0 0 C3.59391114 1.33488128 6.75490696 2.96022723 10 5 C6.79937313 6.60031344 4.27728194 5.03173691 1 4 C0.67 2.68 0.34 1.36 0 0 Z " fill="#2DA8DA" transform="translate(128,21)"/>
<path d="M0 0 C2.475 0.495 2.475 0.495 5 1 C5 2.32 5 3.64 5 5 C2.525 4.01 2.525 4.01 0 3 C0 2.01 0 1.02 0 0 Z " fill="#07AFEF" transform="translate(114,103)"/>
<path d="M0 0 C0.33 0.66 0.66 1.32 1 2 C-1.75 4.0625 -1.75 4.0625 -5 6 C-6.32 5.67 -7.64 5.34 -9 5 C-6.03 3.35 -3.06 1.7 0 0 Z " fill="#194E7F" transform="translate(161,94)"/>
<path d="M0 0 C2.475 0.99 2.475 0.99 5 2 C5 3.32 5 4.64 5 6 C4.34 6 3.68 6 3 6 C3 5.01 3 4.02 3 3 C2.01 3 1.02 3 0 3 C0 2.01 0 1.02 0 0 Z " fill="#17A5E4" transform="translate(136,74)"/>
<path d="M0 0 C0.66 0.33 1.32 0.66 2 1 C0.8125 3 0.8125 3 -1 5 C-3.6875 5.25 -3.6875 5.25 -6 5 C-4.06745228 2.9754262 -2.36841312 1.57894208 0 0 Z " fill="#1B9FDC" transform="translate(119,72)"/>
<path d="M0 0 C0 0.99 0 1.98 0 3 C-1.65 3 -3.3 3 -5 3 C-5.33 2.01 -5.66 1.02 -6 0 C-3 -1 -3 -1 0 0 Z " fill="#17A9E3" transform="translate(171,61)"/>
<path d="M0 0 C2.31 0.33 4.62 0.66 7 1 C5 3 5 3 1.375 3.125 C0.26125 3.08375 -0.8525 3.0425 -2 3 C-1.34 2.67 -0.68 2.34 0 2 C0 1.34 0 0.68 0 0 Z " fill="#12ADE6" transform="translate(114,42)"/>
<path d="M0 0 C-4.75 4 -4.75 4 -7 4 C-6.6875 2.0625 -6.6875 2.0625 -6 0 C-3 -1 -3 -1 0 0 Z " fill="#22375B" transform="translate(133,155)"/>
<path d="M0 0 C0.66 0.33 1.32 0.66 2 1 C1.01 2.485 1.01 2.485 0 4 C-3.625 4.6875 -3.625 4.6875 -7 5 C-2.25 1.125 -2.25 1.125 0 0 Z " fill="#2FA9D5" transform="translate(84,43)"/>
<path d="M0 0 C0.99 0 1.98 0 3 0 C3 1.32 3 2.64 3 4 C1.68 3.67 0.36 3.34 -1 3 C-0.67 2.01 -0.34 1.02 0 0 Z " fill="#2A5D87" transform="translate(172,159)"/>
<path d="M0 0 C1.32 0.33 2.64 0.66 4 1 C3.67 1.99 3.34 2.98 3 4 C2.01 4 1.02 4 0 4 C0 2.68 0 1.36 0 0 Z " fill="#245A87" transform="translate(136,159)"/>
</svg>
